<svg width="1683" height="650" viewBox="0 0 1683 650" fill="none" xmlns="http://www.w3.org/2000/svg">
<path d="M733.64 134.118C733.64 81.867 775.162 40.6162 827.399 40.6162C879.635 40.6162 921.157 81.867 921.157 134.118C921.157 186.369 879.917 227.902 827.399 227.902C774.88 227.902 733.64 186.651 733.64 134.118ZM872.445 134.118C872.445 106.476 852.706 86.7325 827.399 86.7325C802.091 86.7325 782.352 106.476 782.352 134.118C782.352 161.76 802.302 181.786 827.399 181.786C852.495 181.786 872.445 161.548 872.445 134.118Z" fill="white"/>
<path d="M1107.19 100.765C1107.19 138.137 1084.42 160.208 1046 160.208H1016.54V223.248H967.896V43.9302H1050.37C1093.17 43.9302 1107.19 76.2257 1107.19 100.835V100.765ZM1058.48 102.034C1058.48 91.8093 1051.08 89.976 1042.13 89.976H1016.54V114.021H1042.13C1052.35 114.021 1058.48 110.707 1058.48 101.963V102.034Z" fill="white"/>
<path d="M1204.2 90.0465V108.239H1278.43V154.355H1204.2V177.132H1283.57V223.248H1155.55V43.9302H1283.57V90.0465H1204.2Z" fill="white"/>
<path d="M1523.26 43.9302V223.248H1457.41L1381.84 102.104V223.248H1333.2V43.9302H1399.04L1474.61 165.074V43.9302H1523.26Z" fill="white"/>
<path d="M934.13 263.864L862.155 443.181H806.816L734.841 263.864H785.033L834.45 387.052L883.867 263.864H934.06H934.13Z" fill="white"/>
<path d="M1077.02 418.078H990.454L979.669 443.181H927.432L1004.48 263.864H1062.85L1139.9 443.181H1087.67L1076.88 418.078H1077.02ZM1058.34 374.501L1033.74 317.384L1009.14 374.501H1058.27H1058.34Z" fill="white"/>
<path d="M1306.2 399.604V443.181H1184.53V263.864H1233.17V399.604H1306.13H1306.2Z" fill="white"/>
<path d="M1504.36 263.864V370.199C1504.36 417.867 1475.18 447.271 1427.52 447.271C1379.87 447.271 1350.69 417.796 1350.69 370.199V263.864H1399.33V371.468C1399.33 390.93 1409.06 401.155 1427.52 401.155C1445.99 401.155 1455.72 391.706 1455.72 371.468V263.864H1504.36Z" fill="white"/>
<path d="M1603.62 309.98V328.173H1677.85V374.289H1603.62V397.065H1683V443.181H1554.98V263.864H1683V309.98H1603.62Z" fill="white"/>
<path d="M812.455 586.606V608.818H751.477V586.606C753.591 585.478 787.429 563.337 787.711 551.208C787.852 546.061 785.032 543.17 779.675 543.17C774.317 543.17 769.171 546.484 764.166 554.099L748.798 541.407C753.733 529.843 767.409 520.958 779.745 520.958C797.862 520.958 811.186 532.945 811.186 549.304C811.186 561.785 802.445 574.972 785.667 586.042V586.536H812.525L812.455 586.606Z" fill="#FF7501"/>
<path d="M838.257 566.017C838.257 540.35 856.092 520.888 879.567 520.888C903.042 520.888 920.736 540.491 920.736 566.017C920.736 591.543 902.901 611.146 879.567 611.146C856.233 611.146 838.257 591.684 838.257 566.017ZM897.261 566.017C897.261 551.985 890.212 543.1 879.496 543.1C868.781 543.1 861.52 552.197 861.52 566.017C861.52 579.838 868.64 588.934 879.496 588.934C890.353 588.934 897.261 580.05 897.261 566.017Z" fill="#FF7501"/>
<path d="M1010.19 586.607V608.819H949.215V586.607C951.33 585.479 985.168 563.338 985.45 551.209C985.591 546.062 982.771 543.17 977.414 543.17C972.056 543.17 966.91 546.485 961.905 554.1L946.537 541.408C951.471 529.843 965.147 520.958 977.484 520.958C995.601 520.958 1008.92 532.946 1008.92 549.305C1008.92 561.786 1000.18 574.972 983.406 586.043V586.537H1010.26L1010.19 586.607Z" fill="#FF7501"/>
<path d="M1038.89 579.556C1038.74 577.723 1038.53 575.396 1038.53 572.998C1038.53 542.183 1057.14 520.747 1087.17 520.747C1091.33 520.747 1095.78 521.1 1100.36 522.016L1099.72 539.151C1095.78 537.812 1091.62 537.177 1087.67 537.177C1074.98 537.177 1063.63 543.594 1060.67 554.664L1061.16 555.017C1064.76 548.953 1071.67 545.991 1078.15 545.991C1094.79 545.991 1104.38 560.376 1104.38 578.428C1104.38 596.479 1090.49 610.864 1073.08 610.864C1054.32 610.864 1040.93 597.819 1038.82 579.556H1038.89ZM1081.04 578.428C1081.04 572.293 1076.95 568.344 1071.67 568.344C1066.38 568.344 1062.15 572.505 1062.15 578.428C1062.15 584.351 1066.31 588.652 1071.67 588.652C1077.02 588.652 1081.04 584.351 1081.04 578.428Z" fill="#FF7501"/>
<path d="M622.542 193.632H577.496C595.049 227.197 606.117 264.569 609.007 304.198C609.571 311.179 609.853 318.301 609.853 325.423C609.853 332.545 609.571 339.173 609.078 346.084C607.456 368.225 603.368 389.802 596.953 410.322H545.914C553.669 390.155 558.815 368.507 560.718 346.084H520.043C517.787 368.789 511.442 390.508 501.855 410.322C496.779 420.97 490.646 431.124 483.808 440.573H629.38C633.117 430.63 636.359 420.617 639.109 410.322C646.44 383.033 650.247 354.475 650.247 325.423C650.247 279.307 640.801 234.601 622.542 193.632Z" fill="white"/>
<path d="M387.371 511.651C374.188 516.094 360.371 519.126 346.06 520.747C345.708 520.747 345.426 520.747 345.074 520.747V467.157C414.441 457.285 467.947 397.489 467.947 325.423C467.947 268.73 434.955 219.722 386.948 196.523V243.697C388.146 244.614 389.344 245.53 390.472 246.588C391.6 247.505 392.728 248.422 393.786 249.479C394.702 250.255 395.548 251.101 396.394 251.877C397.592 253.005 398.791 254.204 399.919 255.402C401.399 257.024 402.809 258.505 404.078 260.197C410.563 267.954 415.921 276.627 419.869 286.147C419.869 286.288 419.869 286.429 420.01 286.499C420.644 288.051 421.279 289.531 421.772 291.153C422.266 292.493 422.689 293.833 423.182 295.172C423.535 296.371 423.887 297.57 424.169 298.769C424.592 300.25 424.944 301.66 425.226 303.07C426.848 310.404 427.764 318.019 427.764 325.776C427.764 382.469 381.872 428.303 325.264 428.303C323.502 428.303 321.74 428.303 319.907 428.162C318.356 428.162 316.875 427.951 315.325 427.81C311.659 427.457 307.993 426.893 304.468 426.188V520.183C205.705 510.029 128.372 426.329 128.372 324.859C128.372 223.389 205.705 139.618 304.468 129.464V225.363C311.165 223.953 318.144 223.248 325.264 223.248C331.961 223.248 338.588 223.883 344.932 225.152V130.028C344.932 130.028 345.567 130.028 345.919 130.169C347.823 130.381 349.726 130.592 351.63 130.945C363.755 132.567 375.598 135.317 386.877 139.125C458.289 163.029 511.512 226.915 519.901 304.198H560.436C550.355 190.459 459.558 99.6366 345.919 89.553C345.567 89.553 345.285 89.553 344.932 89.412V41.0393C344.932 41.0393 345.567 41.0393 345.919 41.1803C429.104 47.2445 502.489 89.3415 550.567 151.747H600.125C599.702 151.112 599.279 150.477 598.926 149.913C598.644 149.561 598.433 149.208 598.221 148.855C596.953 146.952 595.754 145.118 594.556 143.285C591.595 138.842 588.493 134.541 585.321 130.24C579.329 122.342 572.843 114.797 566.217 107.464C565.653 106.829 565.089 106.265 564.525 105.63C561.352 102.175 558.321 98.7199 554.937 95.3352C511.019 51.4049 456.738 21.6479 397.733 8.25016C397.24 8.10913 396.746 7.96811 396.253 7.8976C391.318 6.83988 386.384 5.78217 381.308 4.936C378.347 4.4424 375.316 3.9488 372.355 3.52571C369.394 3.10263 366.363 2.67954 363.332 2.32697C361.005 2.04491 358.679 1.83336 356.353 1.55131C352.616 1.19874 348.88 0.916686 345.074 0.634629C338.376 0.211544 331.679 0 324.912 0C145.361 0 0 145.541 0 325.07C0 451.22 71.8345 560.588 176.872 614.461C221.284 637.166 271.547 650 324.912 650C363.825 650 401.047 643.231 435.589 630.538V588.018C407.744 599.864 377.572 607.339 346.06 609.666C345.708 609.666 345.426 609.666 345.074 609.666V561.293C345.074 561.293 345.708 561.293 346.06 561.293C392.94 557.133 435.942 539.152 470.978 511.651H540.486C522.298 532.735 501.079 551.069 477.463 566.088V613.121C505.661 598.102 531.745 578.851 555.008 555.652C568.684 541.902 580.95 527.235 591.877 511.722C598.503 502.343 604.636 492.542 610.135 482.529H442.78C426.143 495.01 407.532 505.023 387.441 511.722L387.371 511.651ZM304.68 609.102C265.696 606.352 228.898 595.634 195.765 578.71L221.848 537.882C247.297 550.222 275.213 558.261 304.68 560.729V609.102ZM67.6753 447.201C52.7303 415.893 43.284 381.482 40.6757 345.167H89.1058C91.5026 372.809 98.6227 399.04 109.69 423.156L67.6753 447.201ZM109.549 226.703C98.7636 250.466 91.7846 277.473 89.2468 304.692H40.7462C43.3545 268.589 52.6598 233.755 67.4638 202.587L109.479 226.633L109.549 226.703ZM304.68 88.8479C275.142 91.3864 247.085 99.425 221.637 111.836L195.553 70.9373C228.757 53.9434 265.626 43.1547 304.68 40.4046V88.7774V88.8479ZM160.94 91.9505L186.953 132.637C165.1 148.573 144.797 169.023 129.499 191.517L87.4844 167.471C106.518 138.913 132.037 111.836 161.011 92.0211L160.94 91.9505ZM87.5549 482.458L129.57 458.413C145.079 481.118 164.818 501.145 187.094 517.151L160.94 558.12C132.46 537.812 106.941 511.651 87.5549 482.529V482.458Z" fill="white"/>
</svg>
